<?xml version="1.0" standalone="no"?>
<!DOCTYPE svg PUBLIC "-//W3C//DTD SVG 20010904//EN"
 "http://www.w3.org/TR/2001/REC-SVG-20010904/DTD/svg10.dtd">
<svg version="1.0" xmlns="http://www.w3.org/2000/svg"
 width="225.000000pt" height="225.000000pt" viewBox="0 0 225.000000 225.000000"
 preserveAspectRatio="xMidYMid meet">
<metadata>
Created by potrace 1.16, written by Peter Selinger 2001-2019
</metadata>
<g transform="translate(0.000000,225.000000) scale(0.100000,-0.100000)"
fill="#000000" stroke="none">
<path d="M950 2012 c-54 -5 -60 -16 -60 -103 l0 -79 -235 0 -234 0 -39 41
c-31 33 -46 42 -83 46 -137 16 -212 -154 -108 -241 62 -52 147 -42 199 23 l30
37 90 1 c50 1 90 0 90 -2 0 -2 -35 -28 -78 -58 -126 -88 -212 -191 -282 -339
-51 -107 -70 -181 -77 -295 -6 -97 2 -123 37 -123 32 0 47 32 53 115 19 263
176 500 416 624 75 39 167 71 203 71 16 0 18 -9 18 -78 0 -47 5 -83 12 -90 9
-9 73 -12 225 -12 247 0 233 -6 233 109 0 62 2 71 18 71 24 0 148 -42 193 -65
159 -82 299 -234 369 -401 30 -72 60 -215 60 -286 0 -47 32 -69 70 -48 22 12
23 16 17 99 -18 265 -169 527 -381 661 -30 19 -55 38 -56 41 0 3 40 6 89 6
l89 1 31 -38 c53 -66 138 -76 200 -24 104 87 29 257 -108 241 -37 -4 -52 -13
-83 -46 l-39 -41 -234 0 -235 0 0 73 c0 113 5 110 -201 111 -96 1 -190 0 -209
-2z"/>
<path d="M868 1147 c-129 -196 -208 -326 -208 -342 0 -13 25 -120 55 -237 30
-117 55 -219 55 -225 0 -8 -14 -13 -36 -13 -51 0 -74 -15 -74 -50 0 -16 5 -32
11 -36 6 -4 209 -7 450 -7 459 1 469 1 469 44 0 31 -28 49 -77 49 -31 0 -43 4
-40 13 2 6 31 116 63 243 l58 231 -179 274 c-98 151 -193 296 -212 324 l-33
50 0 -406 0 -406 25 -11 c61 -28 85 -133 45 -197 -49 -80 -169 -85 -228 -10
-48 61 -36 143 29 197 l39 33 -2 400 -3 400 -207 -318z"/>
</g>
</svg>
