<?xml version="1.0" standalone="no"?>
<!DOCTYPE svg PUBLIC "-//W3C//DTD SVG 20010904//EN"
 "http://www.w3.org/TR/2001/REC-SVG-20010904/DTD/svg10.dtd">
<svg version="1.0" xmlns="http://www.w3.org/2000/svg"
 width="256.000000pt" height="197.000000pt" viewBox="0 0 256.000000 197.000000"
 preserveAspectRatio="xMidYMid meet">
<metadata>
Created by potrace 1.16, written by Peter Selinger 2001-2019
</metadata>
<g transform="translate(0.000000,197.000000) scale(0.100000,-0.100000)"
fill="#000000" stroke="none">
<path d="M16 1938 c-14 -20 -16 -110 -16 -770 0 -735 0 -748 20 -768 20 -20
33 -20 800 -20 l780 0 0 130 0 130 -712 0 c-392 0 -718 4 -724 8 -32 21 -34
51 -34 602 l0 551 25 24 24 25 988 0 c879 0 991 -2 1011 -16 21 -14 22 -21 22
-165 l0 -149 70 0 70 0 0 198 c0 163 -3 201 -16 220 l-15 22 -1139 0 -1139 0
-15 -22z m1209 -1373 c73 -73 -37 -184 -112 -113 -33 31 -32 90 3 117 36 28
79 27 109 -4z"/>
<path d="M1202 1498 c-76 -102 -140 -155 -259 -212 -50 -25 -98 -55 -107 -68
-20 -28 -21 -97 -2 -141 7 -18 28 -46 47 -61 32 -27 67 -31 127 -15 9 3 21
-21 36 -71 28 -95 44 -120 77 -120 28 0 79 46 79 73 0 9 -9 21 -20 27 -12 6
-20 21 -20 35 0 14 -5 34 -12 44 -6 10 -8 26 -5 35 9 23 123 21 218 -4 98 -26
115 -25 135 5 22 34 14 166 -16 255 -53 159 -146 300 -197 300 -14 0 -40 -27
-81 -82z m122 32 c42 -38 118 -187 146 -290 23 -86 26 -178 6 -205 -13 -18
-15 -18 -38 -3 -36 24 -105 128 -90 136 6 4 18 24 27 44 25 60 -6 108 -69 108
-20 0 -27 7 -35 38 -6 20 -11 71 -11 113 0 101 7 108 64 59z m-67 -195 c17
-78 77 -216 117 -268 l26 -34 -52 14 c-30 7 -88 12 -133 11 -77 -3 -80 -4 -89
-31 -7 -20 -7 -34 2 -47 7 -11 12 -31 12 -44 0 -14 9 -32 22 -40 l22 -16 -24
-25 c-44 -47 -66 -26 -99 94 -11 41 -23 76 -25 79 -3 2 -28 -1 -56 -8 -47 -11
-54 -11 -78 7 -57 41 -80 139 -44 182 9 11 58 40 107 64 100 49 184 113 230
175 l30 41 8 -42 c5 -23 15 -73 24 -112z"/>
<path d="M1808 1395 c-14 -8 -36 -30 -47 -49 -21 -33 -21 -42 -21 -637 0 -581
1 -605 20 -636 37 -62 46 -63 394 -63 l314 0 33 27 c60 51 59 37 59 673 0 628
1 619 -55 670 l-27 25 -321 2 c-267 2 -327 0 -349 -12z m692 -640 l0 -525
-350 0 -350 0 0 525 0 525 350 0 350 0 0 -525z"/>
<path d="M2197 942 c-14 -15 -14 -25 -2 -89 15 -77 45 -156 72 -185 22 -24 16
-27 -37 -19 -90 12 -123 -5 -98 -52 25 -48 26 -55 15 -66 -26 -26 -49 0 -62
72 -7 34 -7 34 -50 29 -38 -4 -45 -1 -60 21 -9 15 -15 40 -13 59 3 30 10 37
70 68 64 33 148 103 148 124 0 5 -21 -12 -47 -38 -25 -26 -77 -63 -115 -82
l-68 -34 0 -44 c0 -60 36 -100 83 -91 33 6 33 6 50 -48 20 -62 36 -74 68 -48
22 18 22 19 6 54 -31 65 -27 71 56 63 144 -14 132 -18 135 42 5 79 -38 196
-91 255 -30 32 -38 33 -60 9z m75 -51 c55 -87 87 -247 51 -258 -7 -3 -25 14
-42 37 -28 39 -29 43 -15 65 21 33 10 64 -26 72 -25 5 -29 11 -35 54 -14 97
15 111 67 30z"/>
<path d="M876 243 c-8 -59 -42 -118 -100 -171 l-46 -42 435 0 435 0 -53 54
c-55 55 -87 120 -87 178 l0 28 -289 0 -288 0 -7 -47z"/>
</g>
</svg>
