<?xml version="1.0" standalone="no"?>
<!DOCTYPE svg PUBLIC "-//W3C//DTD SVG 20010904//EN"
 "http://www.w3.org/TR/2001/REC-SVG-20010904/DTD/svg10.dtd">
<svg version="1.0" xmlns="http://www.w3.org/2000/svg"
 width="291.000000pt" height="173.000000pt" viewBox="0 0 291.000000 173.000000"
 preserveAspectRatio="xMidYMid meet">
<metadata>
Created by potrace 1.16, written by Peter Selinger 2001-2019
</metadata>
<g transform="translate(0.000000,173.000000) scale(0.100000,-0.100000)"
fill="#000000" stroke="none">
<path d="M290 1710 c-20 -20 -20 -33 -20 -778 0 -651 2 -761 15 -778 8 -10 15
-22 15 -26 0 -5 -60 -8 -134 -8 -128 0 -136 -1 -150 -22 -21 -30 -20 -54 4
-78 20 -20 33 -20 1435 -20 1402 0 1415 0 1435 20 24 24 25 48 4 78 -14 21
-22 22 -161 22 -141 0 -146 1 -130 18 16 17 17 86 17 789 0 733 -1 771 -18
786 -17 16 -112 17 -1155 17 -1124 0 -1137 0 -1157 -20z m2250 -790 l0 -730
-1090 0 -1090 0 0 723 c0 398 3 727 7 730 3 4 494 7 1090 7 l1083 0 0 -730z"/>
<path d="M1157 1422 c-10 -10 -17 -35 -17 -54 0 -31 -4 -38 -27 -46 -24 -8
-33 -5 -61 19 -18 16 -42 29 -54 29 -29 0 -128 -100 -128 -130 0 -13 11 -36
25 -50 22 -23 24 -31 16 -53 -9 -23 -17 -27 -49 -27 -63 0 -82 -26 -82 -114 0
-85 14 -106 72 -106 28 0 37 -5 47 -26 10 -23 9 -30 -7 -48 -53 -58 -49 -89
22 -154 53 -49 82 -53 125 -16 30 25 33 25 56 10 19 -13 25 -25 25 -55 0 -57
22 -71 108 -71 85 0 112 18 112 75 0 29 5 37 26 45 22 9 31 6 61 -21 28 -24
41 -29 62 -24 33 7 121 97 121 123 0 11 -12 35 -26 52 -37 44 -23 75 38 83 60
8 78 33 78 112 0 78 -18 104 -77 112 -34 4 -43 10 -48 31 -4 18 0 31 19 51 41
42 35 78 -22 134 -56 55 -94 62 -131 23 -20 -21 -26 -22 -52 -13 -26 10 -29
16 -29 53 0 61 -20 74 -112 74 -60 0 -78 -4 -91 -18z m155 -82 c3 -50 3 -51
56 -75 l52 -24 34 29 c18 17 37 30 42 30 12 0 74 -62 74 -74 0 -6 -14 -24 -31
-42 l-31 -32 20 -54 c20 -53 20 -53 68 -58 l49 -5 0 -60 0 -60 -50 -3 c-50 -3
-51 -4 -73 -51 -12 -27 -22 -52 -22 -57 0 -4 15 -23 33 -42 l32 -33 -43 -41
-44 -40 -38 37 c-36 35 -39 36 -66 22 -16 -8 -41 -17 -56 -21 -26 -6 -28 -10
-28 -56 l0 -50 -60 0 -60 0 0 43 c0 52 -4 57 -64 85 l-49 23 -31 -30 c-18 -17
-36 -31 -41 -31 -17 0 -75 64 -75 82 0 9 9 22 20 28 35 19 41 43 23 91 -24 63
-31 69 -80 69 l-44 0 3 58 3 57 48 3 c47 3 48 4 74 57 l27 55 -34 35 -34 35
42 42 42 42 33 -32 c39 -37 50 -39 111 -12 45 19 46 20 46 65 l0 45 59 0 60 0
3 -50z"/>
<path d="M1155 1164 c-155 -80 -151 -293 7 -359 108 -45 229 11 267 124 30 90
-12 187 -100 231 -47 24 -132 26 -174 4z m163 -54 c42 -26 76 -99 68 -144 -14
-73 -75 -126 -145 -126 -147 0 -203 186 -82 267 44 30 113 31 159 3z"/>
<path d="M1855 872 c-35 -4 -46 -18 -39 -48 8 -30 -33 -46 -65 -26 -22 15 -25
15 -47 -13 -29 -37 -30 -49 -4 -66 27 -19 16 -55 -21 -68 -31 -11 -35 -24 -19
-66 8 -22 15 -26 36 -22 34 6 50 -24 34 -64 -11 -26 -10 -31 11 -49 30 -25 56
-25 69 -1 14 27 50 15 62 -20 8 -24 16 -29 43 -29 37 0 59 21 51 48 -9 27 33
49 61 31 26 -16 45 -8 63 26 13 25 13 28 -8 45 -18 15 -21 23 -12 44 6 16 17
26 29 26 27 0 34 15 27 56 -6 29 -11 34 -36 34 -36 0 -56 30 -40 59 15 30 13
38 -21 62 l-32 22 -18 -22 c-23 -28 -69 -22 -69 8 0 26 -19 37 -55 33z m92
-157 c28 -20 46 -75 34 -106 -15 -40 -49 -64 -91 -64 -44 0 -68 18 -87 63 -12
28 -11 37 2 66 25 53 96 73 142 41z"/>
</g>
</svg>
