<?xml version="1.0" standalone="no"?>
<!DOCTYPE svg PUBLIC "-//W3C//DTD SVG 20010904//EN"
 "http://www.w3.org/TR/2001/REC-SVG-20010904/DTD/svg10.dtd">
<svg version="1.0" xmlns="http://www.w3.org/2000/svg"
 width="225.000000pt" height="225.000000pt" viewBox="0 0 225.000000 225.000000"
 preserveAspectRatio="xMidYMid meet">
<metadata>
Created by potrace 1.16, written by Peter Selinger 2001-2019
</metadata>
<g transform="translate(0.000000,225.000000) scale(0.100000,-0.100000)"
fill="#000000" stroke="none">
<path d="M460 1635 l0 -485 30 0 30 0 0 325 0 325 445 0 445 0 0 30 0 30 -445
0 -445 0 0 100 0 100 368 2 367 3 3 28 3 27 -400 0 -401 0 0 -485z"/>
<path d="M1330 2090 l0 -30 200 0 200 0 0 -100 0 -100 -125 0 -125 0 0 -30 0
-30 125 0 125 0 0 -475 0 -475 -605 0 -605 0 0 115 0 115 -30 0 -30 0 0 -145
0 -145 668 0 667 0 0 665 0 665 -232 0 -233 0 0 -30z"/>
<path d="M1870 1814 l0 -34 83 0 c126 0 157 -34 157 -175 l0 -75 30 0 30 0 0
92 c0 165 -43 211 -207 221 l-93 6 0 -35z"/>
<path d="M172 1823 c-45 -22 -69 -55 -81 -114 -7 -31 -11 -205 -11 -459 l0
-410 35 0 35 0 0 438 c0 399 2 439 18 458 28 35 56 44 136 44 l76 0 0 30 0 30
-87 0 c-61 0 -98 -6 -121 -17z"/>
<path d="M260 1110 l0 -560 560 0 560 0 0 30 0 30 -525 0 -525 0 0 499 0 498
25 -5 c23 -4 25 -1 25 32 l0 36 -60 0 -60 0 0 -560z"/>
<path d="M1870 1635 c0 -32 2 -35 30 -35 l30 0 0 -495 0 -495 -237 0 -238 0 0
-30 0 -30 268 0 267 0 0 560 0 560 -60 0 -60 0 0 -35z"/>
<path d="M1225 1559 c-2 -8 -32 -115 -66 -238 -63 -233 -63 -240 -17 -241 11
0 21 13 27 38 6 20 35 127 65 237 30 109 54 200 53 201 -1 1 -14 5 -29 9 -19
5 -29 3 -33 -6z"/>
<path d="M850 1425 c-63 -51 -115 -97 -117 -101 -1 -5 53 -52 120 -105 l121
-96 18 22 c10 13 18 25 18 27 0 3 -38 35 -85 72 -46 37 -87 71 -89 75 -3 5 33
38 79 75 46 37 87 72 91 77 6 10 -23 50 -35 48 -3 0 -58 -42 -121 -94z"/>
<path d="M1388 1496 c-16 -22 -15 -23 77 -98 l94 -75 -93 -74 c-90 -72 -93
-75 -78 -97 8 -12 19 -22 24 -22 10 0 250 191 246 195 -17 16 -244 195 -248
195 -3 -1 -12 -11 -22 -24z"/>
<path d="M2108 948 l-3 -513 -347 -3 c-338 -2 -348 -3 -348 -22 0 -11 -9 -24
-19 -30 -21 -11 -497 -15 -525 -4 -9 3 -16 17 -16 30 l0 24 -240 0 -240 0 0
-30 0 -30 206 0 206 0 28 -30 28 -30 286 0 285 0 34 30 35 30 351 0 351 0 1
-27 c4 -72 -2 -98 -32 -125 l-29 -28 -995 0 -994 0 -27 24 c-24 20 -28 32 -32
90 l-4 66 116 0 116 0 0 35 0 35 -75 0 -75 0 0 165 0 165 -35 0 -35 0 0 -170
0 -170 -35 0 -35 0 0 -99 c0 -111 16 -148 80 -185 35 -21 47 -21 1013 -24 663
-2 990 1 1017 8 49 13 99 54 116 97 8 19 14 68 14 118 l0 85 -40 0 -40 0 0
515 0 515 -30 0 -30 0 -2 -512z"/>
</g>
</svg>
